# xmcd
#
# Track frame offsets:
#	150
#	2581
#	21050
#	42393
#	63079
#	79606
#	100394
#	122665
#	139652
#	157385
#	173633
#
# Disc length: 2546 seconds
#
# Revision: 0
# Processed by: cddbd v1.5.2PL0 Copyright (c) Steve Scherf et al.
# Submitted via: EasyCDDAExtractor 12.0.7.1
#
DISCID=8509f00b
DTITLE=CHROME RT - A Világnak Szívében
DYEAR=1900
DGENRE=
TTITLE0=Intro
TTITLE1=Magyarul
TTITLE2=A fény
TTITLE3=Nincs mitől félnem
TTITLE4=Rémisztő álom
TTITLE5=Ami elmúlt
TTITLE6=Tied a föld
TTITLE7=Holdkórosok dala
TTITLE8=Apád még nem tudja
TTITLE9=Te vagy a legjobb
TTITLE10=A világnak szívében
EXTD=
EXTT0=
EXTT1=
EXTT2=
EXTT3=
EXTT4=
EXTT5=
EXTT6=
EXTT7=
EXTT8=
EXTT9=
EXTT10=
PLAYORDER=
